<svg width="312" height="312" viewBox="0 0 312 312" fill="none" xmlns="http://www.w3.org/2000/svg">
<g clip-path="url(#clip0)">
<path d="M285.812 4.57031H205.605C197.107 4.57031 190.218 11.4593 190.218 19.957V100.164C190.218 108.662 197.107 115.551 205.605 115.551H219.996C224.186 115.551 227.583 118.948 227.583 123.138V136.114C227.583 138.84 231.034 140.022 232.704 137.868L247.829 118.379C249.213 116.595 251.344 115.551 253.602 115.551H285.812C294.309 115.551 301.198 108.662 301.198 100.164V19.957C301.199 11.4593 294.31 4.57031 285.812 4.57031V4.57031Z" fill="white"/>
<path d="M285.812 4.57031H269.19C277.687 4.57031 284.576 11.4593 284.576 19.957V100.164C284.576 108.662 277.687 115.551 269.19 115.551H285.812C294.31 115.551 301.199 108.662 301.199 100.164V19.957C301.199 11.4593 294.31 4.57031 285.812 4.57031Z" fill="#CAFFD5"/>
<path d="M186.264 307.43H24.2385L26.4682 276.827C27.8338 258.1 41.9305 242.789 60.4872 239.887L73.3176 237.874C79.8416 236.859 84.644 231.238 84.644 224.642V177.541H132.787V224.642C132.787 231.238 137.596 236.859 144.113 237.874L156.95 239.887C175.5 242.789 189.603 258.1 190.962 276.828L192.689 300.521C192.96 304.253 190.006 307.43 186.264 307.43Z" fill="#FFCDBE"/>
<path d="M73.576 267.088C74.1335 264.944 76.0683 263.447 78.2834 263.447H98.5073C109.463 263.447 118.344 254.566 118.344 243.611V235.274C118.344 233.321 119.927 231.738 121.879 231.738H134.832C133.536 229.668 132.786 227.234 132.786 224.642V210.629H90.2619C87.9859 210.629 86.6538 208.07 87.9597 206.209L96.4824 194.032C97.8084 192.145 98.4086 189.962 98.3361 187.811C98.2569 184.724 96.7858 181.71 94.0948 179.756L93.8773 179.598C91.0949 177.579 87.6897 177.093 84.644 177.96V224.642C84.644 231.238 79.8416 236.859 73.3176 237.874L60.4866 239.887C51.8121 241.244 44.1127 245.313 38.2322 251.175L24.4835 304.067L24.2385 307.429H63.0892L73.576 267.088Z" fill="#EFAF9F"/>
<path d="M186.264 307.43H24.2385L26.4682 276.827C27.8338 258.1 41.9305 242.789 60.4872 239.887L73.3176 237.874C74.228 237.729 75.1055 237.498 75.9428 237.188C83.8653 245.757 95.5019 251.173 108.471 251.173C121.512 251.173 133.201 245.705 141.131 237.05C142.067 237.433 143.07 237.71 144.112 237.874L156.949 239.887C175.499 242.789 189.603 258.1 190.962 276.828L192.689 300.521C192.959 304.248 190.004 307.43 186.264 307.43Z" fill="#ACD980"/>
<path d="M78.2839 263.447H98.5078C107.105 263.447 114.422 257.978 117.175 250.329C114.363 250.874 111.455 251.173 108.471 251.173C95.5024 251.173 83.8657 245.757 75.9433 237.188C68.1896 240.064 52.0716 237.381 38.2327 251.175L24.484 304.067L24.239 307.429H63.0897L73.5771 267.087C74.1334 264.944 76.0688 263.447 78.2839 263.447V263.447Z" fill="#8CC951"/>
<path d="M192.689 300.521L190.962 276.827C190.289 267.554 186.479 259.022 180.402 252.423C166.561 237.392 149.374 239.925 141.777 237.292C141.748 237.281 141.719 237.269 141.69 237.259C141.501 237.193 141.314 237.125 141.13 237.05C139.783 238.521 138.319 239.891 136.766 241.167L140.261 241.715C158.811 244.617 172.915 259.928 174.274 278.656L176 302.348C176.144 304.332 175.372 306.153 174.06 307.43H186.264C190.006 307.43 192.961 304.253 192.689 300.521V300.521Z" fill="#8CC951"/>
<path d="M117.336 24.9198H96.9054C73.1276 24.9198 52.3851 37.9117 41.3853 57.1832C26.0936 61.1892 14.9463 75.323 15.4253 91.884L17.1894 152.912H195.948V103.532C195.948 60.1155 160.753 24.9198 117.336 24.9198V24.9198Z" fill="#655E67"/>
<path d="M55.9773 163.186H24.4909C16.9304 163.186 10.8013 157.057 10.8013 149.497V145.205C10.8013 137.644 16.9304 131.515 24.4909 131.515H55.9773V163.186Z" fill="#FFCDBE"/>
<path d="M157.313 163.186H188.8C196.36 163.186 202.489 157.057 202.489 149.497V145.205C202.489 137.644 196.36 131.515 188.8 131.515H157.313V163.186Z" fill="#FFCDBE"/>
<path d="M180.588 142.123C180.588 187.244 135.067 213.145 108.473 213.145C81.8853 213.145 36.3577 187.244 36.3577 142.123C36.3577 113.301 44.3691 91.4878 57.3324 76.8598C60.2488 73.5686 65.3877 73.6021 68.3011 76.8964C71.2651 80.2479 74.3851 83.4496 77.783 86.3679C81.7854 89.8054 86.5098 92.943 91.7773 93.0003C95.2934 93.043 98.9405 91.1576 100.834 88.3398C102.403 86.0065 105.516 85.2862 108.063 86.4764C124.858 94.3245 143.389 99.1349 161.968 100.174C169.438 100.593 175.793 105.864 177.485 113.152C179.504 121.855 180.588 131.515 180.588 142.123V142.123Z" fill="#FFCDBE"/>
<path d="M177.485 113.153C176.14 107.361 171.847 102.853 166.393 101.032C168.021 109.094 168.891 117.918 168.891 127.503C168.891 173.576 122.409 200.025 95.2525 200.025C82.6238 200.025 65.8112 194.299 51.4385 183.54C67.0897 202.705 91.5957 213.146 108.473 213.146C135.068 213.146 180.588 187.245 180.588 142.124C180.588 131.515 179.504 121.855 177.485 113.153V113.153Z" fill="#EFAF9F"/>
<path d="M50.06 307.43L63.2085 256.849C63.7704 254.688 65.7216 253.179 67.9549 253.179H88.1478C99.1031 253.179 107.984 244.298 107.984 233.342V225.004C107.984 223.051 109.567 221.469 111.52 221.469H131.237C137.075 221.469 142.016 216.844 142.062 211.006C142.088 208.051 140.901 205.379 138.975 203.453C137.062 201.54 134.423 200.359 131.508 200.359H79.9023C77.6263 200.359 76.2942 197.8 77.6001 195.94L86.1228 183.762C87.4488 181.875 88.0491 179.692 87.9766 177.541C87.8973 174.454 86.4263 171.44 83.7347 169.487L83.5172 169.328C78.708 165.838 72.0323 166.9 68.5826 171.683C62.4937 180.127 35.7312 217.181 33.0859 220.848L12.0058 301.944C11.2843 304.72 13.3793 307.429 16.2476 307.429H50.06V307.43Z" fill="#F9B1A0"/>
<path d="M263.723 22.5469C252.037 22.5469 242.531 32.0537 242.531 43.7397C242.531 46.2638 244.577 48.31 247.102 48.31C249.626 48.31 251.672 46.2638 251.672 43.7397C251.672 37.0939 257.078 31.6875 263.723 31.6875C270.369 31.6875 275.776 37.0939 275.776 43.7397C275.776 50.3856 270.369 55.7919 263.723 55.7919H260.823C258.298 55.7919 256.253 57.8382 256.253 60.3622V75.9982C256.253 78.5222 258.298 80.5685 260.823 80.5685C263.347 80.5685 265.393 78.5222 265.393 75.9982V64.8674C276.301 64.013 284.916 54.8632 284.916 43.7397C284.916 32.0537 275.409 22.5469 263.723 22.5469V22.5469Z" fill="#163B72"/>
<path d="M260.823 87.5325C258.298 87.5325 256.253 89.5788 256.253 92.1028V93.4416C256.253 95.9656 258.298 98.0119 260.823 98.0119C263.348 98.0119 265.393 95.9656 265.393 93.4416V92.1028C265.393 89.5788 263.347 87.5325 260.823 87.5325Z" fill="#163B72"/>
<path d="M285.808 0H205.603C194.598 0 185.646 8.95233 185.646 19.957V56.121C170.606 34.5168 145.596 20.347 117.335 20.347H96.9028C73.0098 20.347 50.7573 32.9251 38.3754 53.2959C21.5718 58.5646 10.3441 74.2164 10.8548 92.0138L12.0089 131.894C8.45444 135.229 6.22778 139.962 6.22778 145.209V149.499C6.22778 159.565 14.4202 167.755 24.4908 167.755H36.7422C39.861 175.47 44.399 182.667 50.2844 189.224C47.0449 193.711 30.4005 216.76 29.3792 218.176C29.0483 218.635 28.8051 219.152 28.6625 219.699L7.58242 300.795C6.87981 303.497 7.45628 306.315 9.16497 308.524C10.873 310.733 13.455 312.001 16.2471 312.001H186.262C189.31 312.001 192.248 310.721 194.324 308.49C196.401 306.258 197.467 303.234 197.249 300.187L195.518 276.497C195.083 270.502 193.492 264.764 190.786 259.443C189.641 257.193 186.889 256.296 184.641 257.44C182.391 258.584 181.494 261.336 182.638 263.586C184.789 267.816 186.055 272.382 186.401 277.161L188.132 300.848C188.183 301.559 187.841 302.04 187.634 302.263C187.427 302.486 186.971 302.861 186.262 302.861H165.181V284.186C165.181 281.662 163.136 279.616 160.611 279.616C158.086 279.616 156.041 281.662 156.041 284.186V302.859H55.9705L67.6321 258C67.6705 257.852 67.8033 257.749 67.9556 257.749H88.1485C92.2466 257.749 96.1094 256.729 99.5042 254.937C102.439 255.47 105.446 255.743 108.469 255.743C121.286 255.743 133.518 250.847 142.473 242.22L142.49 242.223C143.382 242.408 142.706 242.272 156.245 244.403C161.209 245.178 165.858 246.945 170.065 249.653C170.83 250.146 171.687 250.381 172.535 250.381C174.037 250.381 175.508 249.641 176.382 248.284C177.748 246.163 177.135 243.334 175.012 241.968C169.727 238.565 163.888 236.346 157.658 235.372C145.931 233.406 144.855 233.583 142.978 232.861C139.678 231.588 137.423 228.447 137.366 224.781C142.77 222.461 146.585 217.179 146.633 211.047C146.648 209.361 146.386 207.717 145.874 206.163C156.685 199.754 172.186 187.626 180.2 167.755H188.803C198.869 167.755 207.06 159.565 207.06 149.498V145.208C207.06 139.597 204.514 134.57 200.521 131.217V119.458C202.171 119.893 203.88 120.12 205.604 120.12H219.997C221.66 120.12 223.013 121.473 223.013 123.136V136.116C223.013 139.343 224.985 142.102 228.039 143.146C228.852 143.424 229.679 143.558 230.492 143.558C232.732 143.558 234.866 142.536 236.313 140.667L251.434 121.183C251.959 120.508 252.75 120.12 253.604 120.12H285.815C296.82 120.12 305.772 111.168 305.772 100.163V19.957C305.772 8.95233 296.817 0 285.808 0V0ZM15.3684 149.498V145.208C15.3684 140.178 19.4604 136.086 24.4908 136.086H31.9068C31.5924 144.032 31.7984 150.577 33.7831 158.614H24.4908C19.4604 158.614 15.3684 154.525 15.3684 149.498ZM108.626 246.598C111.107 242.778 112.555 238.228 112.555 233.343V226.04H128.275C128.622 230.605 130.651 234.708 133.799 237.691C126.851 243.366 117.945 246.562 108.626 246.598ZM131.238 216.899H111.52C107.051 216.899 103.415 220.535 103.415 225.004V233.342C103.415 241.76 96.5664 248.609 88.1485 248.609H67.9556C63.6419 248.609 59.8711 251.524 58.7858 255.7L46.5258 302.859H16.4909L37.2937 222.828C38.9055 220.595 68.5498 179.543 72.2889 174.358C73.2377 173.043 74.6411 172.177 76.2401 171.921C77.858 171.66 79.4905 172.053 80.8281 173.024L81.0511 173.187C82.5033 174.24 83.3619 175.87 83.4094 177.695C83.4508 178.931 83.0962 180.121 82.3789 181.142L73.8599 193.313C72.2725 195.574 72.0781 198.501 73.3517 200.953C74.6265 203.406 77.1365 204.93 79.9024 204.93H131.508C133.108 204.93 134.612 205.553 135.744 206.685C136.886 207.827 137.507 209.347 137.493 210.97C137.467 214.239 134.661 216.899 131.238 216.899V216.899ZM197.919 149.498C197.919 154.525 193.829 158.614 188.803 158.614H183.16C184.481 153.266 185.158 147.745 185.158 142.125C185.158 140.087 185.115 138.07 185.037 136.086H188.803C193.829 136.086 197.919 140.178 197.919 145.208V149.498ZM188.803 126.945H184.383C183.847 121.812 183.031 116.84 181.938 112.12C179.803 102.934 171.696 96.1454 162.222 95.6122C144.514 94.6195 126.455 90.0285 109.993 82.3345C105.383 80.1846 99.8168 81.6691 97.0423 85.7884C95.9948 87.3448 93.7938 88.477 91.831 88.4325C88.6311 88.3953 85.1126 86.6373 80.7604 82.9012C77.8257 80.3772 74.8684 77.4223 71.7234 73.8709C69.462 71.3109 66.2086 69.8411 62.7973 69.838H62.7857C59.3945 69.838 56.16 71.292 53.9089 73.8294C49.5111 78.7922 45.6958 84.4898 42.5691 90.7628C41.443 93.0217 42.3613 95.7657 44.6202 96.8925C46.8798 98.0186 49.6232 97.1002 50.7499 94.8413C53.5195 89.285 56.8839 84.2552 60.7492 79.8939C61.4548 79.0987 62.3268 78.9793 62.7863 78.9793C63.258 78.9866 64.1477 79.1017 64.8771 79.9274C68.303 83.7958 71.5491 87.0358 74.8038 89.8347C78.627 93.1168 84.541 97.4902 91.7225 97.5731C96.8089 97.6249 101.852 95.0125 104.624 90.8944C104.9 90.4843 105.575 90.3606 106.126 90.6171C123.631 98.798 142.851 103.681 161.709 104.739C167.155 105.045 171.813 108.931 173.034 114.186C174.318 119.733 175.197 125.674 175.646 131.856C175.892 135.152 176.017 138.607 176.017 142.125C176.017 148.872 174.913 155.45 172.733 161.676C165.905 181.198 150.624 192.859 140.479 198.734C137.894 196.823 134.78 195.79 131.508 195.79H83.2839L89.8621 186.391C91.7255 183.739 92.653 180.626 92.5451 177.425C92.4257 172.768 90.1923 168.527 86.424 165.793L86.2015 165.631C82.8792 163.22 78.8275 162.25 74.7928 162.896C70.7777 163.54 67.2561 165.712 64.8752 169.012C63.1556 171.397 59.7845 176.067 55.7755 181.62C50.5885 175.504 46.7055 168.816 44.2089 161.676C40.6904 151.625 40.4942 142.597 41.2967 131.849C41.7568 125.537 42.669 119.461 44.0078 113.792C44.5879 111.335 43.0669 108.873 40.6099 108.293C38.1535 107.713 35.6917 109.234 35.1115 111.691C33.9653 116.545 33.114 121.664 32.5607 126.946H24.4908C23.3037 126.946 22.1447 127.064 21.0198 127.281L19.9917 91.7518C19.5847 77.585 28.8594 65.1891 42.5459 61.6066C43.7348 61.2952 44.7488 60.5182 45.3582 59.4506C55.904 40.9683 75.6551 29.4877 96.9028 29.4877H117.335C158.164 29.4877 191.38 62.7041 191.38 103.533V127.13C190.538 127.011 189.678 126.945 188.803 126.945V126.945ZM296.632 100.163C296.632 106.128 291.779 110.979 285.815 110.979H253.604C249.91 110.979 246.49 112.653 244.217 115.575L232.154 131.118V123.136C232.154 116.433 226.7 110.979 219.997 110.979H205.603C203.794 110.979 202.07 110.541 200.52 109.709V103.533C200.52 92.8273 198.486 82.5886 194.787 73.1805V19.957C194.787 13.9925 199.639 9.14062 205.603 9.14062H285.808C291.776 9.14062 296.632 13.9925 296.632 19.957V100.163Z" fill="#163B72"/>
<path d="M85.3772 146.651C87.9012 146.651 89.9475 144.605 89.9475 142.081V136.978C89.9475 134.454 87.9012 132.407 85.3772 132.407C82.8532 132.407 80.8069 134.454 80.8069 136.978V142.081C80.8069 144.605 82.8532 146.651 85.3772 146.651Z" fill="#163B72"/>
<path d="M153.674 146.651C156.199 146.651 158.244 144.605 158.244 142.081V136.978C158.244 134.454 156.199 132.407 153.674 132.407C151.15 132.407 149.104 134.454 149.104 136.978V142.081C149.104 144.605 151.15 146.651 153.674 146.651Z" fill="#163B72"/>
<path d="M111.643 169.137C117.874 165.502 123.678 165.502 129.909 169.137C130.633 169.56 131.425 169.761 132.208 169.76C133.78 169.76 135.31 168.948 136.159 167.492C137.431 165.312 136.694 162.514 134.514 161.242C125.526 155.999 116.025 155.999 107.037 161.242C104.857 162.514 104.12 165.312 105.392 167.492C106.664 169.673 109.463 170.409 111.643 169.137V169.137Z" fill="#163B72"/>
<path d="M219.072 94.125V87.1677H225.062V57.6849H218.697V50.7276H234.609V87.1677H240.287V94.125H219.072Z" fill="#163B72"/>
</g>
<defs>
<clipPath id="clip0">
<rect width="312" height="312" fill="white"/>
</clipPath>
</defs>
</svg>
